<?xml version="1.0" encoding="UTF-8" standalone="no"?>
<svg
   xmlns:dc="http://purl.org/dc/elements/1.1/"
   xmlns:cc="http://creativecommons.org/ns#"
   xmlns:rdf="http://www.w3.org/1999/02/22-rdf-syntax-ns#"
   xmlns:svg="http://www.w3.org/2000/svg"
   xmlns="http://www.w3.org/2000/svg"
   xmlns:sodipodi="http://sodipodi.sourceforge.net/DTD/sodipodi-0.dtd"
   xmlns:inkscape="http://www.inkscape.org/namespaces/inkscape"
   height="207.02"
   width="182.18449"
   data-name="Layer 1"
   viewBox="0 0 91.092247 103.51"
   x="0px"
   y="0px"
   id="svg2"
   version="1.1"
   inkscape:version="0.91 r13725"
   sodipodi:docname="article.svg"
   style="fill:#000000"
   inkscape:export-filename="article.png"
   inkscape:export-xdpi="29.639999"
   inkscape:export-ydpi="29.639999">
  <metadata
     id="metadata22">
    <rdf:RDF>
      <cc:Work
         rdf:about="">
        <dc:format>image/svg+xml</dc:format>
        <dc:type
           rdf:resource="http://purl.org/dc/dcmitype/StillImage" />
        <dc:title>all</dc:title>
      </cc:Work>
    </rdf:RDF>
  </metadata>
  <defs
     id="defs20" />
  <sodipodi:namedview
     pagecolor="#ffffff"
     bordercolor="#666666"
     borderopacity="1"
     objecttolerance="10"
     gridtolerance="10"
     guidetolerance="10"
     inkscape:pageopacity="0"
     inkscape:pageshadow="2"
     inkscape:window-width="956"
     inkscape:window-height="768"
     id="namedview18"
     showgrid="false"
     inkscape:zoom="1.18"
     inkscape:cx="-50.577157"
     inkscape:cy="103.52"
     inkscape:window-x="0"
     inkscape:window-y="25"
     inkscape:window-maximized="0"
     inkscape:current-layer="svg2"
     fit-margin-top="0"
     fit-margin-left="0"
     fit-margin-right="0"
     fit-margin-bottom="0" />
  <title
     id="title4">all</title>
  <path
     sodipodi:nodetypes="cccccsssccccc"
     inkscape:connector-curvature="0"
     style="fill:none;stroke:#005399;stroke-width:3.5;stroke-miterlimit:4;stroke-dasharray:none;stroke-opacity:1"
     id="path8"
     d="m 7.0595335,1.75 54.8900005,0 c 0.700318,0.4607922 1.368523,0.968628 2,1.52 7.999999,8 15.999999,15.98 23.999999,23.94 0.928138,0.874147 1.434647,2.105803 1.390001,3.38 l 0,64.34 c 0,4.23 -2.57,6.83 -6.790001,6.83 l -73.9999995,0 c -4.23,0 -6.78,-2.57 -6.79,-6.82 l 0,-52.43 0,-34.17 c -0.1705343,-3.0748438 1.94169,-5.8088115 4.96,-6.42 0.118814,-0.044971 0.232735,-0.1019314 0.34,-0.17 z" />
  <path
     style="fill:none;stroke:#005399;stroke-width:2.5;stroke-miterlimit:4;stroke-dasharray:none;stroke-opacity:1"
     id="path12"
     d="m 45.449533,83 -21.39,0 c -2.07,0 -3.5,-1.27 -3.5,-3.11 0,-1.84 1.4,-3.14 3.49,-3.14 l 43,0 c 2.06,0 3.5,1.29 3.5,3.13 0,1.84 -1.41,3.11 -3.5,3.11 l -21.6,0 z"
     inkscape:connector-curvature="0" />
  <path
     inkscape:connector-curvature="0"
     d="m 45.449534,73 -21.39,0 c -2.07,0 -3.5,-1.27 -3.5,-3.11 0,-1.84 1.4,-3.14 3.49,-3.14 l 43,0 c 2.06,0 3.5,1.29 3.5,3.13 0,1.84 -1.41,3.11 -3.5,3.11 l -21.6,0 z"
     id="path12-5"
     style="fill:none;stroke:#005399;stroke-width:2.5;stroke-miterlimit:4;stroke-dasharray:none;stroke-opacity:1" />
  <path
     style="fill:none;stroke:#005399;stroke-width:2.5;stroke-miterlimit:4;stroke-dasharray:none;stroke-opacity:1"
     id="path4206"
     d="m 45.449534,63 -21.39,0 c -2.07,0 -3.5,-1.27 -3.5,-3.11 0,-1.84 1.4,-3.14 3.49,-3.14 l 43,0 c 2.06,0 3.5,1.29 3.5,3.13 0,1.84 -1.41,3.11 -3.5,3.11 l -21.6,0 z"
     inkscape:connector-curvature="0" />
  <path
     inkscape:connector-curvature="0"
     d="m 45.449534,53 -21.39,0 c -2.07,0 -3.5,-1.27 -3.5,-3.11 0,-1.84 1.4,-3.14 3.49,-3.14 l 43,0 c 2.06,0 3.5,1.29 3.5,3.13 0,1.84 -1.41,3.11 -3.5,3.11 l -21.6,0 z"
     id="path4208"
     style="fill:none;stroke:#005399;stroke-width:2.5;stroke-miterlimit:4;stroke-dasharray:none;stroke-opacity:1" />
  <path
     inkscape:connector-curvature="0"
     d="m 33.039534,27.575082 9,0 c 2.09,0 3.51,1.27 3.5,3.11 -0.01,1.84 -1.41,3.11 -3.5,3.11 l -18.08,0 a 3.12,3.12 0 1 1 0,-6.22 c 3.03,-0.01 6.05,0 9.08,0 z"
     id="path16"
     style="fill:none;stroke:#005399;stroke-width:2.5;stroke-miterlimit:4;stroke-dasharray:none;stroke-opacity:1" />
  <path
     style="fill:none;stroke:#005399;stroke-width:2.5;stroke-miterlimit:4;stroke-dasharray:none;stroke-opacity:1"
     id="path4234"
     d="m 45.449534,43 -21.39,0 c -2.07,0 -3.5,-1.27 -3.5,-3.11 0,-1.84 1.4,-3.14 3.49,-3.14 l 43,0 c 2.06,0 3.5,1.29 3.5,3.13 0,1.84 -1.41,3.11 -3.5,3.11 l -21.6,0 z"
     inkscape:connector-curvature="0" />
</svg>
