<?xml version="1.0" encoding="UTF-8" standalone="no"?>
<svg
   xmlns:dc="http://purl.org/dc/elements/1.1/"
   xmlns:cc="http://creativecommons.org/ns#"
   xmlns:rdf="http://www.w3.org/1999/02/22-rdf-syntax-ns#"
   xmlns:svg="http://www.w3.org/2000/svg"
   xmlns="http://www.w3.org/2000/svg"
   xmlns:sodipodi="http://sodipodi.sourceforge.net/DTD/sodipodi-0.dtd"
   xmlns:inkscape="http://www.inkscape.org/namespaces/inkscape"
   height="200"
   width="200"
   fill="#000000"
   version="1.1"
   x="0px"
   y="0px"
   viewBox="0 0 100 100"
   id="svg2"
   inkscape:version="0.91 r13725"
   sodipodi:docname="beacon.svg">
  <metadata
     id="metadata12">
    <rdf:RDF>
      <cc:Work
         rdf:about="">
        <dc:format>image/svg+xml</dc:format>
        <dc:type
           rdf:resource="http://purl.org/dc/dcmitype/StillImage" />
        <dc:title></dc:title>
      </cc:Work>
    </rdf:RDF>
  </metadata>
  <defs
     id="defs10" />
  <sodipodi:namedview
     pagecolor="#ffffff"
     bordercolor="#666666"
     borderopacity="1"
     objecttolerance="10"
     gridtolerance="10"
     guidetolerance="10"
     inkscape:pageopacity="0"
     inkscape:pageshadow="2"
     inkscape:window-width="1366"
     inkscape:window-height="725"
     id="namedview8"
     showgrid="false"
     inkscape:zoom="1.18"
     inkscape:cx="61.864407"
     inkscape:cy="127.8192"
     inkscape:window-x="0"
     inkscape:window-y="25"
     inkscape:window-maximized="1"
     inkscape:current-layer="svg2" />
  <g
     transform="translate(0,-952.36218)"
     id="g4"
     style="fill-rule:nonzero;fill:#005399;fill-opacity:1"
     inkscape:export-filename="beacon.png"
     inkscape:export-xdpi="44.75816"
     inkscape:export-ydpi="44.75816">
    <path
       style="color:#000000;text-indent:0;text-transform:none;direction:ltr;block-progression:tb;baseline-shift:baseline;display:inline;overflow:visible;visibility:visible;fill:#005399;fill-opacity:1;fill-rule:nonzero;stroke:none;marker:none;enable-background:accumulate"
       d="m 51.814453,972.22461 c -5.35262,0.93731 -11.687392,-1.56468 -16.351562,2.06055 -1.871476,1.47397 -3.193949,3.69063 -3.414063,6.08007 -8.355034,0.23373 -16.912996,-0.48817 -25.142578,0.36133 -2.1385999,2.00592 -0.2715658,5.19346 -0.9022975,7.63671 0.1227169,11.61919 -0.2755031,23.31563 0.2089381,34.88673 1.8708524,2.4594 5.3132754,0.4672 7.7871094,1.1133 6.002268,0.03 12.115409,-0.06 18.048828,0.045 0.463282,5.6265 6.779682,9.1413 11.94336,7.873 5.276479,-0.1428 11.95605,1.5779 15.882812,-3.1054 3.808561,-4.783 1.484321,-11.2783 2.114717,-16.8164 -0.242795,-11.2444 0.550718,-22.57652 -0.403779,-33.76956 -1.22735,-4.1117 -5.643178,-6.5394 -9.771485,-6.36523 z m -1.898437,4.0332 c 3.199294,-0.23148 7.659448,0.44616 7.988281,4.40625 0.242916,11.53547 0.02013,23.12264 0.103515,34.67774 -0.544149,3.6159 0.976293,7.8393 -1.009765,11.0977 -3.388938,3.658 -8.798736,1.0876 -13.053925,1.9963 -3.493075,0.6094 -8.01911,-0.9952 -7.963653,-5.1838 0.250095,-14.4279 -0.307246,-28.92064 0.222656,-43.3477 1.007396,-3.81071 5.239926,-3.67494 8.371094,-3.47852 1.780944,-0.047 3.559844,-0.16343 5.341797,-0.16797 z m 35.957031,1.07422 c -2.581153,0.21047 -2.060832,3.67052 -0.579799,4.93386 6.941987,13.42256 5.954052,30.04071 -1.316686,43.05641 -0.08225,2.5777 3.996704,2.5475 4.28205,0.099 7.920522,-14.5963 7.843124,-33.62313 -1.090643,-47.71993 -0.371807,-0.26864 -0.837705,-0.39878 -1.294922,-0.36914 z m -9.044922,5.00391 c -2.567226,0.23967 -2.031678,3.76688 -0.319427,4.83145 6.654174,9.77156 5.619367,23.54101 -1.48526,32.76621 -0.633808,2.2703 3.192668,3.3619 3.925781,1.1543 8.288218,-11.0781 8.139128,-27.97417 -0.978516,-38.50782 -0.343995,-0.19508 -0.749955,-0.2743 -1.142578,-0.24414 z M 32,984.36133 c 0,12 0,23.99997 0,35.99997 -7.333333,0 -14.666667,0 -22,0 0,-12 0,-23.99997 0,-35.99997 7.333333,0 14.666667,0 22,0 z m 37.873047,4.96679 c -2.591788,0.1885 -2.120298,3.6679 -0.373047,4.69532 3.956067,5.6704 2.908964,13.72106 -1.453125,18.83006 -0.751718,2.3438 3.234761,3.4663 3.96875,1.1856 5.618659,-6.9832 5.425158,-18.69536 -1.509766,-24.64848 -0.205365,-0.0582 -0.420287,-0.0721 -0.632812,-0.0625 z m -44.273438,2.89258 c -3.535684,0.68251 -7.44029,-0.59206 -10.873047,0.47852 -1.83157,1.33022 -0.163724,4.46779 1.990235,3.61328 3.545954,-0.34015 7.514638,0.96796 10.792969,-0.61523 1.317476,-1.37695 -0.18245,-3.5897 -1.910157,-3.47657 z m 0,16 c -3.535684,0.6825 -7.44029,-0.5921 -10.873047,0.4785 -1.831761,1.3301 -0.163671,4.4678 1.990235,3.6133 3.545954,-0.3402 7.514638,0.968 10.792969,-0.6152 1.317476,-1.377 -0.18245,-3.5897 -1.910157,-3.4766 z"
       id="path6"
       inkscape:connector-curvature="0" />
  </g>
</svg>
