<?xml version="1.0" encoding="UTF-8" standalone="no"?>
<svg
   xmlns:dc="http://purl.org/dc/elements/1.1/"
   xmlns:cc="http://creativecommons.org/ns#"
   xmlns:rdf="http://www.w3.org/1999/02/22-rdf-syntax-ns#"
   xmlns:svg="http://www.w3.org/2000/svg"
   xmlns="http://www.w3.org/2000/svg"
   xmlns:sodipodi="http://sodipodi.sourceforge.net/DTD/sodipodi-0.dtd"
   xmlns:inkscape="http://www.inkscape.org/namespaces/inkscape"
   height="200"
   width="200"
   fill="#000000"
   data-name="Layer 1"
   viewBox="0 0 100 100"
   x="0px"
   y="0px"
   id="svg2"
   version="1.1"
   inkscape:version="0.91 r13725"
   sodipodi:docname="position.svg">
  <metadata
     id="metadata14">
    <rdf:RDF>
      <cc:Work
         rdf:about="">
        <dc:format>image/svg+xml</dc:format>
        <dc:type
           rdf:resource="http://purl.org/dc/dcmitype/StillImage" />
        <dc:title>Artboard 6</dc:title>
      </cc:Work>
    </rdf:RDF>
  </metadata>
  <defs
     id="defs12" />
  <sodipodi:namedview
     pagecolor="#ffffff"
     bordercolor="#666666"
     borderopacity="1"
     objecttolerance="10"
     gridtolerance="10"
     guidetolerance="10"
     inkscape:pageopacity="0"
     inkscape:pageshadow="2"
     inkscape:window-width="956"
     inkscape:window-height="1035"
     id="namedview10"
     showgrid="false"
     inkscape:zoom="1.668772"
     inkscape:cx="88.003375"
     inkscape:cy="122.26726"
     inkscape:window-x="960"
     inkscape:window-y="25"
     inkscape:window-maximized="0"
     inkscape:current-layer="svg2" />
  <title
     id="title4">Artboard 6</title>
  <path
     style="fill:#005399;fill-opacity:1"
     d="m 49.921875,13.361328 c -17.93743,-0.01304 -34.414082,15.51198 -35.386719,33.501953 -0.786563,9.762868 2.563433,19.800753 9.142578,27.148438 -2.346641,3.178557 -6.459083,5.097973 -7.789062,8.896484 0.39468,1.965844 3.192672,1.643054 3.879388,0.02053 2.217496,-2.040039 4.118183,-4.444662 6.620612,-6.16115 12.77717,11.658562 34.164882,12.110404 47.326172,0.802734 13.39889,-10.79404 17.338499,-31.437597 8.422478,-46.19815 -1.257544,-2.21377 -2.775436,-4.27003 -4.434197,-6.198334 2.390099,-3.160349 6.372326,-5.252787 7.830078,-8.96289 -0.406233,-2.137917 -3.418702,-1.634119 -4.055272,0.101035 -2.12028,2.082733 -4.228682,4.177468 -6.331447,6.277871 C 68.277897,16.482949 59.12802,13.094796 49.921875,13.361328 Z m 1.537109,3.414063 C 68.10531,16.69942 83.0825,31.345553 83.554688,47.962891 84.585219,63.786802 72.589305,79.232356 56.925781,81.943359 42.191705,84.940204 26.077999,76.516007 20.413107,62.538178 14.595069,49.128447 18.885093,32.103008 30.778679,23.454927 c 5.878262,-4.48953 13.280415,-6.907109 20.680305,-6.679536 z m -1.134765,7.230468 c -6.669148,0.938016 -9.45062,8.142958 -10.970703,13.841797 -5.469781,2.083441 -12.835477,4.242955 -14.226563,10.822266 -0.37325,6.559845 6.437622,10.18529 11.892886,11.699298 3.412277,0.418287 2.817795,4.47359 4.333677,6.808514 1.813374,4.529769 6.465213,9.52114 11.802734,7.513672 5.351804,-2.145757 7.198138,-8.192949 8.935547,-13.121094 1.958928,-1.942194 5.191626,-1.480151 7.357422,-3.216796 4.303302,-2.01019 8.732809,-7.152231 5.953125,-12.021485 C 72.817175,41.286815 66.673399,39.76519 62.033203,37.910156 60.440971,32.190487 57.48357,24.229104 50.324219,24.005859 Z m 0.345703,3.523438 c 4.214373,0.63955 6.258478,5.468209 7.041016,9.001953 -1.469122,1.693834 -4.077695,-0.033 -5.962891,0.449219 -2.672846,-0.134134 -5.342724,0.378373 -8.013672,0.109375 0.01752,-3.614671 2.31019,-7.232352 5.316406,-9.15625 0.50242,-0.240462 1.059889,-0.410762 1.619141,-0.404297 z m 0.05273,12.955078 c 2.750249,0.309367 6.2798,-0.49899 8.466797,1.332031 0.859031,5.34095 0.885623,10.837478 -0.138672,16.158203 -5.507224,1.056919 -11.204346,1.013083 -16.716797,0.01758 -1.092525,-5.515926 -1.030526,-11.231307 -0.0332,-16.75586 2.755637,-0.666313 5.601375,-0.733866 8.421875,-0.751953 z m -12.373047,2.427734 c -0.453235,4.560613 -0.181496,9.166604 -0.105468,13.765625 -3.629447,-0.288201 -7.349799,-2.397041 -9.279297,-5.486328 -1.330197,-3.68542 2.515802,-6.379161 5.427734,-7.65039 1.241361,-0.62229 2.580585,-1.039452 3.957031,-1.226563 l 0,0.5 0,0.09766 z m 25.28711,-0.501953 c 3.654303,1.068432 8.591902,2.928101 9.039062,7.330078 -0.711343,4.148153 -5.496232,6.239069 -9.015625,6.835938 -1.610677,-1.946254 0.194052,-4.731274 -0.332031,-6.994141 0.0044,-2.409546 -0.364268,-4.810668 -0.25,-7.24414 l 0.495868,0.06415 0.06273,0.0081 z m -5.759766,20.140625 c -1.043343,3.730905 -2.953443,8.408534 -7.246094,9.119141 -4.535729,-0.886768 -6.229993,-5.918505 -7.40625,-9.796875 4.942675,0.424297 9.931313,0.408424 14.851563,-0.0078 l -0.139527,0.480138 -0.05969,0.205409 z"
     id="path4207"
     inkscape:connector-curvature="0"
     inkscape:export-filename="position.png"
     inkscape:export-xdpi="496.51999"
     inkscape:export-ydpi="496.51999" />
</svg>
