<?xml version="1.0" encoding="UTF-8" standalone="no"?>
<svg
   xmlns:dc="http://purl.org/dc/elements/1.1/"
   xmlns:cc="http://creativecommons.org/ns#"
   xmlns:rdf="http://www.w3.org/1999/02/22-rdf-syntax-ns#"
   xmlns:svg="http://www.w3.org/2000/svg"
   xmlns="http://www.w3.org/2000/svg"
   xmlns:sodipodi="http://sodipodi.sourceforge.net/DTD/sodipodi-0.dtd"
   xmlns:inkscape="http://www.inkscape.org/namespaces/inkscape"
   height="200"
   width="200"
   fill="#000000"
   version="1.1"
   x="0px"
   y="0px"
   viewBox="0 0 100 100"
   enable-background="new 0 0 100 100"
   xml:space="preserve"
   id="svg2"
   inkscape:version="0.91 r13725"
   sodipodi:docname="sensor.svg"><metadata
     id="metadata12"><rdf:RDF><cc:Work
         rdf:about=""><dc:format>image/svg+xml</dc:format><dc:type
           rdf:resource="http://purl.org/dc/dcmitype/StillImage" /><dc:title></dc:title></cc:Work></rdf:RDF></metadata><defs
     id="defs10" /><sodipodi:namedview
     pagecolor="#ffffff"
     bordercolor="#666666"
     borderopacity="1"
     objecttolerance="10"
     gridtolerance="10"
     guidetolerance="10"
     inkscape:pageopacity="0"
     inkscape:pageshadow="2"
     inkscape:window-width="956"
     inkscape:window-height="1035"
     id="namedview8"
     showgrid="false"
     inkscape:zoom="1.18"
     inkscape:cx="100.55744"
     inkscape:cy="100"
     inkscape:window-x="0"
     inkscape:window-y="25"
     inkscape:window-maximized="0"
     inkscape:current-layer="svg2" /><path
     d="m 82.25479,28.910415 c 1.114806,0 2.015925,-0.903134 2.015925,-2.015924 0,-1.112791 -0.901119,-2.015925 -2.015925,-2.015925 l -6.888413,0 0,-5.281722 6.888413,0 c 1.114806,0 2.015925,-0.903134 2.015925,-2.015924 0,-1.11279 -0.901119,-2.015925 -2.015925,-2.015925 l -6.888413,0 0,-2.227596 c 0,-1.11279 -0.901119,-2.015924 -2.015925,-2.015924 l -46.700904,0 c -1.112791,0 -2.015925,0.903134 -2.015925,2.015924 l 0,2.227596 -6.888413,0 c -1.112791,0 -2.015925,0.903135 -2.015925,2.015925 0,1.11279 0.903134,2.015924 2.015925,2.015924 l 6.888413,0 0,5.281722 -6.888413,0 c -1.112791,0 -2.015925,0.903134 -2.015925,2.015925 0,1.11279 0.903134,2.015924 2.015925,2.015924 l 6.888413,0 0,5.283738 -6.888413,0 c -1.112791,0 -2.015925,0.903134 -2.015925,2.015924 0,1.11279 0.903134,2.015925 2.015925,2.015925 l 6.888413,0 0,5.285753 -6.888413,0 c -1.112791,0 -2.015925,0.903134 -2.015925,2.015925 0,1.11279 0.903134,2.015924 2.015925,2.015924 l 6.888413,0 0,5.279706 -6.888413,0 c -1.112791,0 -2.015925,0.901118 -2.015925,2.015924 0,1.114807 0.903134,2.015925 2.015925,2.015925 l 6.888413,0 0,5.283738 -6.888413,0 c -1.112791,0 -2.015925,0.901118 -2.015925,2.015924 0,1.114806 0.903134,2.015924 2.015925,2.015924 l 6.888413,0 0,5.28777 -6.888413,0 c -1.112791,0 -2.015925,0.901118 -2.015925,2.015925 0,1.114806 0.903134,2.015924 2.015925,2.015924 l 6.888413,0 0,5.283738 -6.888413,0 c -1.112791,0 -2.015925,0.901118 -2.015925,2.015924 0,1.114806 0.903134,2.015925 2.015925,2.015925 l 6.888413,0 0,1.85465 c 0,1.114806 0.903134,2.015924 2.015925,2.015924 l 46.700904,0 c 1.114806,0 2.015925,-0.901118 2.015925,-2.015924 l 0,-1.85465 6.888413,0 c 1.114806,0 2.015925,-0.901119 2.015925,-2.015925 0,-1.114806 -0.901119,-2.015924 -2.015925,-2.015924 l -6.888413,0 0,-5.283738 6.888413,0 c 1.114806,0 2.015925,-0.901118 2.015925,-2.015924 0,-1.114807 -0.901119,-2.015925 -2.015925,-2.015925 l -6.888413,0 0,-5.28777 6.888413,0 c 1.114806,0 2.015925,-0.901118 2.015925,-2.015924 0,-1.114806 -0.901119,-2.015924 -2.015925,-2.015924 l -6.888413,0 0,-5.283738 6.888413,0 c 1.114806,0 2.015925,-0.901118 2.015925,-2.015925 0,-1.114806 -0.901119,-2.015924 -2.015925,-2.015924 l -6.888413,0 0,-5.279706 6.888413,0 c 1.114806,0 2.015925,-0.903134 2.015925,-2.015924 0,-1.112791 -0.901119,-2.015925 -2.015925,-2.015925 l -6.888413,0 0,-5.285753 6.888413,0 c 1.114806,0 2.015925,-0.903135 2.015925,-2.015925 0,-1.11279 -0.901119,-2.015924 -2.015925,-2.015924 l -6.888413,0 0,-5.283738 6.888413,0 z m -10.920262,55.736278 -42.669056,0 0,-69.29337 42.669056,0 0,69.29337 z"
     id="path4"
     inkscape:connector-curvature="0"
     style="fill:#005399;fill-opacity:1"
     inkscape:export-filename="sensor.png"
     inkscape:export-xdpi="525.22998"
     inkscape:export-ydpi="525.22998" /><path
     d="M 68.308625,49.230933 C 68.205813,48.982974 68.058651,48.761222 67.87117,48.573741 l -5.642573,-5.642572 c -0.788226,-0.788226 -2.06229,-0.788226 -2.850517,0 -0.788226,0.788227 -0.788226,2.062291 0,2.850517 l 2.203406,2.203406 -9.565562,0 0,-9.565562 2.203406,2.203406 c 0.393105,0.393105 0.909182,0.590665 1.425258,0.590665 0.516077,0 1.032154,-0.19756 1.425259,-0.590665 0.788226,-0.786211 0.788226,-2.062291 0,-2.850517 L 51.427274,32.129846 C 51.062392,31.762948 50.558411,31.537164 50,31.537164 c -0.556395,0 -1.060376,0.225784 -1.427274,0.590666 l -5.642573,5.644589 c -0.788226,0.788226 -0.788226,2.064306 0,2.850517 0.788227,0.788226 2.062291,0.788226 2.850517,0 l 2.203406,-2.203406 0,9.565562 -9.565562,0 2.203406,-2.203406 c 0.788226,-0.78621 0.788226,-2.06229 0,-2.850517 -0.788227,-0.788226 -2.062291,-0.788226 -2.850517,0 l -5.644589,5.642572 c -0.185465,0.185465 -0.332627,0.405201 -0.435439,0.651144 -0.100797,0.243927 -0.157242,0.505997 -0.157242,0.776131 0,0.268118 0.05443,0.532204 0.157242,0.776131 0.102812,0.245943 0.25199,0.465678 0.435439,0.651143 l 5.642573,5.642573 c 0.393105,0.393105 0.909182,0.590666 1.425258,0.590666 0.516077,0 1.032154,-0.197561 1.425259,-0.590666 0.788226,-0.788227 0.788226,-2.062291 0,-2.850517 l -2.20139,-2.203406 9.565562,0 0,9.565562 -2.203406,-2.203406 c -0.788226,-0.788226 -2.06229,-0.788226 -2.850517,0 -0.788226,0.788227 -0.788226,2.062291 0,2.850517 l 5.642573,5.642573 c 0.185465,0.187481 0.409232,0.334643 0.657191,0.437455 0.245943,0.102812 0.505997,0.155226 0.770083,0.155226 0.26207,0 0.52414,-0.05241 0.770083,-0.155226 0.247959,-0.102812 0.471726,-0.249974 0.657191,-0.437455 l 5.642573,-5.642573 c 0.788226,-0.788226 0.788226,-2.06229 0,-2.850517 -0.788227,-0.788226 -2.062291,-0.788226 -2.850517,0 l -2.203406,2.203406 0,-9.565562 9.565562,0 -2.203406,2.203406 c -0.788226,0.788226 -0.788226,2.06229 0,2.850517 0.393106,0.393105 0.909182,0.590666 1.425259,0.590666 0.516076,0 1.032153,-0.197561 1.425258,-0.590666 L 67.87117,51.42829 c 0.187481,-0.185465 0.334643,-0.409232 0.437455,-0.657191 0.205625,-0.491886 0.205625,-1.048281 0,-1.540166 z"
     id="path6"
     inkscape:connector-curvature="0"
     style="fill:#005399;fill-opacity:1"
     inkscape:export-filename="sensor.png"
     inkscape:export-xdpi="525.22998"
     inkscape:export-ydpi="525.22998" /></svg>